<svg width="45" height="35" viewBox="0 0 45 35" fill="none" xmlns="http://www.w3.org/2000/svg">
<path d="M22.2954 13.0397C18.6349 13.0397 15.668 15.9509 15.668 19.54C15.668 23.1303 18.6349 26.0403 22.2954 26.0403C25.9551 26.0403 28.9229 23.1303 28.9229 19.54C28.9229 15.9509 25.9551 13.0397 22.2954 13.0397ZM39.9686 6.53937H34.6667C33.9376 6.53937 33.1521 5.98468 32.9219 5.30604L31.5513 1.27195C31.3202 0.593755 30.5356 0.0390625 29.8065 0.0390625H14.7843C14.0553 0.0390625 13.2698 0.593755 13.0396 1.27239L11.669 5.30648C11.4379 5.98468 10.6532 6.53937 9.92422 6.53937H4.62227C2.19221 6.53937 0.203979 8.48946 0.203979 10.8729V30.3738C0.203979 32.7573 2.19221 34.7074 4.62227 34.7074H39.9686C42.3987 34.7074 44.3869 32.7573 44.3869 30.3738V10.8729C44.3869 8.48946 42.3987 6.53937 39.9686 6.53937ZM22.2954 30.3738C16.1951 30.3738 11.2497 25.5233 11.2497 19.54C11.2497 13.5571 16.1951 8.70614 22.2954 8.70614C28.3949 8.70614 33.3412 13.5571 33.3412 19.54C33.3412 25.5233 28.3949 30.3738 22.2954 30.3738ZM38.4222 13.9034C37.5686 13.9034 36.8758 13.2247 36.8758 12.3866C36.8758 11.5494 37.5686 10.8699 38.4222 10.8699C39.2767 10.8699 39.9686 11.5494 39.9686 12.3866C39.9686 13.2247 39.2763 13.9034 38.4222 13.9034Z" fill="white"/>
</svg>
