<svg width="17" height="17" viewBox="0 0 17 17" fill="none" xmlns="http://www.w3.org/2000/svg">
<path d="M11.0382 8.49909C11.0382 9.90159 9.90489 11.0349 8.50239 11.0349C7.09989 11.0349 5.96655 9.90159 5.96655 8.49909C5.96655 7.09659 7.09989 5.96326 8.50239 5.96326C9.90489 5.96326 11.0382 7.09659 11.0382 8.49909Z" stroke="#090415" stroke-width="1.0625" stroke-linecap="round" stroke-linejoin="round"/>
<path d="M8.49818 14.3593C10.9986 14.3593 13.329 12.8859 14.9511 10.3359C15.5886 9.33719 15.5886 7.65844 14.9511 6.65969C13.329 4.10969 10.9986 2.63635 8.49818 2.63635C5.99776 2.63635 3.66735 4.10969 2.04526 6.65969C1.40776 7.65844 1.40776 9.33719 2.04526 10.3359C3.66735 12.8859 5.99776 14.3593 8.49818 14.3593Z" stroke="#090415" stroke-width="1.0625" stroke-linecap="round" stroke-linejoin="round"/>
</svg>
