<svg width="20" height="20" viewBox="0 0 20 20" fill="none" xmlns="http://www.w3.org/2000/svg">
<path fill-rule="evenodd" clip-rule="evenodd" d="M0.407715 14.4731C0.407715 13.8084 0.938222 13.2695 1.59264 13.2695C2.24705 13.2695 2.77756 13.8084 2.77756 14.4731L2.77756 16.9035L17.0282 16.9035V14.4731C17.0282 13.8084 17.5587 13.2695 18.2131 13.2695C18.8675 13.2695 19.398 13.8084 19.398 14.4731V16.9035C19.398 18.2329 18.337 19.3105 17.0282 19.3105H2.77756C1.46873 19.3105 0.407715 18.2329 0.407715 16.9035L0.407715 14.4731ZM13.7605 6.69036L11.0436 3.93081L11.0436 13.3777C11.0436 14.0424 10.5131 14.5812 9.85865 14.5812C9.20424 14.5812 8.67373 14.0424 8.67373 13.3777L8.67373 3.93082L5.95684 6.69036C5.4941 7.16036 4.74385 7.16036 4.28111 6.69036C3.81837 6.22035 3.81837 5.45833 4.28111 4.98832L8.18292 1.02526C9.1084 0.0852528 10.6089 0.0852566 11.5344 1.02526L15.4362 4.98832C15.8989 5.45833 15.8989 6.22035 15.4362 6.69036C14.9735 7.16036 14.2232 7.16036 13.7605 6.69036Z" fill="#090415" fill-opacity="0.65"/>
</svg>
