<svg width="19" height="18" viewBox="0 0 19 18" fill="none" xmlns="http://www.w3.org/2000/svg">
<g opacity="0.25" clip-path="url(#clip0_3723_41056)">
<path d="M3.3513 12.6619L4.17107 11.8631C3.27346 11.0723 2.56821 10.0939 2.10731 9C3.27104 6.14812 6.48133 3.9375 9.51964 3.9375C10.3015 3.94763 11.0763 4.08447 11.8127 4.3425L12.7013 3.465C11.6938 3.04724 10.6133 2.82563 9.51964 2.8125C7.65109 2.88145 5.84408 3.48612 4.32196 4.5518C2.79983 5.61747 1.6293 7.09743 0.95505 8.80875C0.909514 8.93234 0.909514 9.06766 0.95505 9.19125C1.46425 10.5171 2.28527 11.7062 3.3513 12.6619Z" fill="#090415"/>
<path d="M7.2268 8.84812C7.26666 8.30909 7.50293 7.80214 7.89241 7.41998C8.28188 7.03783 8.79853 6.80599 9.34788 6.76687L10.3855 5.74312C9.80406 5.59291 9.19266 5.59486 8.61224 5.74878C8.03182 5.90271 7.50266 6.20324 7.07752 6.6204C6.65237 7.03756 6.34609 7.55678 6.18922 8.1263C6.03235 8.69582 6.03036 9.29574 6.18345 9.86625L7.2268 8.84812ZM18.0844 8.80875C17.4271 7.12868 16.2833 5.67395 14.7939 4.62375L17.5456 1.91813L16.7373 1.125L1.49414 16.0819L2.30245 16.875L5.2261 14.0062C6.52963 14.7566 8.00876 15.1635 9.51986 15.1875C11.3884 15.1186 13.1954 14.5139 14.7175 13.4482C16.2397 12.3825 17.4102 10.9026 18.0844 9.19125C18.13 9.06766 18.13 8.93234 18.0844 8.80875ZM11.8129 9C11.8105 9.39381 11.7028 9.7801 11.5006 10.1203C11.2983 10.4604 11.0086 10.7425 10.6604 10.9384C10.3122 11.1343 9.91777 11.2371 9.51642 11.2365C9.11507 11.2359 8.7209 11.1319 8.37333 10.935L11.4919 7.875C11.698 8.21572 11.8087 8.60381 11.8129 9ZM9.51986 14.0625C8.31718 14.0419 7.13731 13.737 6.08027 13.1737L7.53636 11.745C8.19867 12.1959 9.00136 12.4043 9.80427 12.3336C10.6072 12.263 11.3593 11.9179 11.9293 11.3586C12.4994 10.7993 12.8511 10.0613 12.923 9.27345C12.995 8.48561 12.7827 7.698 12.3231 7.04812L13.9684 5.43375C15.2838 6.31968 16.3125 7.55743 16.9322 9C15.7685 11.8519 12.5582 14.0625 9.51986 14.0625Z" fill="#090415"/>
</g>
<defs>
<clipPath id="clip0_3723_41056">
<rect width="18.3445" height="18" fill="white" transform="translate(0.347656)"/>
</clipPath>
</defs>
</svg>
